<?xml version="1.0" encoding="utf-8"?>
<!-- Generator: Adobe Illustrator 20.0.0, SVG Export Plug-In . SVG Version: 6.00 Build 0)  -->
<svg version="1.1" id="Layer_1" xmlns="http://www.w3.org/2000/svg" xmlns:xlink="http://www.w3.org/1999/xlink" x="0px" y="0px"
	 viewBox="0 0 595.3 841.9" style="enable-background:new 0 0 595.3 841.9;" xml:space="preserve">
<style type="text/css">
	.st0{opacity:0.7;fill:#553E98;}
	.st1{fill:#563E97;}
	.st2{fill:#9F9DC1;}
</style>
<circle class="st0" cx="278.5" cy="220.5" r="83.5"/>
<g>
	<g>
		<path class="st1" d="M158.2,288.4C136.4,367,25,550.3,29.1,543.9C99.5,433.2,224.3,428,224.3,428
			C132.8,433.2,163.6,268.9,158.2,288.4z M83.6,470.5c-2.1,2.6,53.4-80.2,64.1-115.9c2.7-8.9,1,56.9,28.9,66.4
			C176.6,421,118.9,426.9,83.6,470.5z"/>
	</g>
</g>
<path class="st2" d="M502.5,454H394c-6.6,0-12-5.4-12-12V333.5c0-6.6,5.4-12,12-12h108.5c6.6,0,12,5.4,12,12V442
	C514.5,448.6,509.1,454,502.5,454z"/>
</svg>
